<?xml version="1.0"?>
<svg xmlns="http://www.w3.org/2000/svg" height="512px" viewBox="0 -65 475.60054 475" width="512px" class=""><g><path d="m135.800781 156.898438c1.875 1.890624 4.4375 2.9375 7.101563 2.902343 2.652344-.011719 5.195312-1.050781 7.097656-2.902343 1.847656-1.894532 2.863281-4.445313 2.824219-7.089844-.035157-2.644532-1.125-5.167969-3.023438-7.007813l-24-23.800781v-49c0-5.523438-4.476562-10-10-10-5.523437 0-10 4.476562-10 10v53.101562c.09375 2.671876 1.203125 5.210938 3.101563 7.097657zm0 0" data-original="#000000" class="active-path" data-old_color="#000000" fill="#FFFFFF"/><path d="m444.300781 183.199219h-2.300781l-42.597656-79.699219c-9.058594-16.953125-26.78125-27.46875-46-27.300781h-.203125l-84.296875.101562c-5.539063-.046875-10.082032 4.363281-10.203125 9.898438v97h-38.199219c12.128906-18.949219 18.515625-41 18.402344-63.5 0-65.898438-53.601563-119.398438-119.5-119.398438-65.933594.03125-119.371094 53.46875-119.402344 119.398438-.0664062 22.492187 6.316406 44.53125 18.402344 63.5h-5.5c-5.652344.179687-10.175782 4.75-10.300782 10.402343v100.796876c0 5.5 4.800782 9.800781 10.300782 9.800781h24.199218c4.40625 24.042969 25.359376 41.5 49.800782 41.5 24.4375 0 45.390625-17.457031 49.796875-41.5h214c4.355469 24.03125 25.28125 41.5 49.703125 41.5 24.417968 0 45.34375-17.46875 49.699218-41.5h15.199219c5.5 0 10.300781-4.300781 10.300781-9.800781v-79.796876c-.089843-17.265624-14.035156-31.257812-31.300781-31.402343zm-165.601562-87h74.601562c11.835938-.140625 22.773438 6.289062 28.398438 16.699219l37.601562 70.300781h-140.601562zm-159.199219-75.699219c54.953125 0 99.5 44.546875 99.5 99.5s-44.546875 99.5-99.5 99.5-99.5-44.546875-99.5-99.5c.074219-54.921875 44.578125-99.425781 99.5-99.5zm-32.597656 305.398438c-16.902344 0-30.601563-13.699219-30.601563-30.597657 0-16.902343 13.699219-30.601562 30.601563-30.601562 16.898437 0 30.597656 13.699219 30.597656 30.601562 0 16.898438-13.699219 30.597657-30.597656 30.597657zm0-81.296876c-24.101563 0-44.300782 17.597657-49.402344 39.597657h-14.800781v-81h11.601562c22.433594 22.898437 53.144531 35.800781 85.199219 35.800781 32.058594 0 62.765625-12.902344 85.199219-35.800781h54v81h-122.398438c-5-22-25.199219-39.597657-49.398437-39.597657zm313.5 81.296876c-16.902344 0-30.601563-13.699219-30.601563-30.597657 0-16.902343 13.699219-30.601562 30.601563-30.601562 16.898437 0 30.597656 13.699219 30.597656 30.601562 0 16.898438-13.699219 30.597657-30.597656 30.597657zm55.296875-41.699219h-6c-5-22-25.199219-39.597657-49.398438-39.597657s-44.300781 17.597657-49.300781 39.597657h-72.300781v-81h165.601562c6.257813.1875 11.269531 5.242187 11.398438 11.5zm0 0" data-original="#000000" class="active-path" data-old_color="#000000" fill="#FFFFFF"/></g> </svg>
